<?xml version="1.0" standalone="no"?>
<!DOCTYPE svg PUBLIC "-//W3C//DTD SVG 20010904//EN"
 "http://www.w3.org/TR/2001/REC-SVG-20010904/DTD/svg10.dtd">
<svg version="1.0" xmlns="http://www.w3.org/2000/svg"
 width="400.000000pt" height="400.000000pt" viewBox="0 0 400.000000 400.000000"
 preserveAspectRatio="xMidYMid meet">
<metadata>
Created by potrace 1.11, written by Peter Selinger 2001-2013
</metadata>
<g transform="translate(0.000000,400.000000) scale(0.100000,-0.100000)"
fill="#000000" stroke="none">
<path d="M491 3105 c-18 -8 -41 -15 -50 -15 -24 0 -107 -57 -148 -100 -103
-110 -77 -327 67 -535 97 -142 295 -354 422 -453 105 -83 315 -239 345 -258
17 -10 59 -38 93 -61 34 -24 66 -43 70 -43 4 0 25 -13 47 -29 22 -16 58 -39
79 -50 22 -12 71 -39 109 -61 104 -58 424 -216 470 -230 22 -7 53 -21 70 -31
17 -11 49 -19 73 -19 39 0 43 2 40 22 -2 13 -18 30 -39 42 -39 23 -58 36 -242
171 -223 164 -466 375 -668 582 -172 175 -354 392 -426 507 -157 251 -193 340
-193 482 0 41 -5 75 -12 82 -16 16 -65 15 -107 -3z m-63 -411 c2 -37 1 -38
-13 -20 -18 24 -20 69 -2 64 6 -3 13 -22 15 -44z m56 -105 c10 -23 29 -54 44
-69 26 -26 75 -100 88 -133 4 -13 1 -17 -15 -17 -13 0 -26 12 -37 33 -9 17
-20 34 -24 37 -4 3 -18 25 -30 50 -13 25 -31 51 -41 58 -12 8 -19 25 -19 48 0
46 14 43 34 -7z m179 -253 c3 -8 3 -17 0 -20 -7 -7 -33 13 -33 25 0 15 27 10
33 -5z"/>
<path d="M1327 3013 c-17 -17 -3 -36 41 -55 26 -11 56 -28 67 -37 11 -9 49
-35 85 -57 66 -40 94 -44 200 -32 23 3 25 0 27 -47 4 -70 -26 -105 -93 -112
-29 -3 -62 -15 -81 -29 -25 -19 -44 -24 -93 -24 -81 0 -115 -16 -178 -85 -65
-71 -72 -84 -61 -114 7 -18 14 -22 32 -17 37 9 54 -13 61 -79 9 -76 9 -67 0
-157 -7 -75 -6 -77 30 -141 36 -64 47 -76 122 -127 21 -14 51 -39 68 -55 17
-17 49 -44 71 -60 39 -29 43 -30 190 -35 138 -5 153 -7 184 -29 20 -15 53 -26
83 -29 56 -5 68 -20 48 -58 -12 -21 -10 -30 10 -73 12 -28 37 -63 54 -79 39
-37 141 -92 171 -92 26 0 82 -58 90 -93 3 -12 9 -69 14 -126 8 -103 9 -105 45
-138 19 -18 45 -33 56 -33 24 0 46 32 54 82 4 22 24 59 49 89 46 56 84 118
117 189 48 102 58 126 65 150 4 14 19 48 33 75 22 43 26 63 26 140 0 151 -24
175 -183 180 -85 2 -186 12 -317 31 -30 4 -52 1 -80 -14 -21 -11 -63 -23 -93
-27 -55 -7 -67 -15 -113 -75 -30 -38 -21 -40 -138 30 -135 81 -133 81 -192 38
-14 -10 -21 -9 -37 6 -34 31 -27 68 22 107 40 32 46 34 110 31 l67 -2 0 69 c0
44 9 100 25 155 14 47 25 91 25 98 0 18 61 111 89 134 l25 22 -29 43 c-17 24
-34 47 -39 51 -5 3 -43 11 -84 17 -79 12 -112 31 -112 63 0 30 26 32 96 9 82
-27 104 -19 104 40 0 33 -7 47 -39 82 l-40 42 -107 2 c-101 1 -108 3 -128 26
-27 32 -72 55 -166 83 -41 12 -93 29 -115 38 -41 15 -126 21 -138 9z m446
-407 c10 -21 17 -52 15 -70 -3 -26 -7 -31 -28 -28 -51 5 -53 8 -46 69 4 30 9
60 12 65 10 16 29 2 47 -36z"/>
<path d="M2070 2962 c-20 -17 -23 -24 -14 -39 18 -30 57 -43 151 -51 86 -7 88
-7 91 -34 4 -36 37 -59 73 -51 42 8 75 -4 117 -41 20 -19 56 -39 79 -46 33
-10 53 -26 90 -74 65 -83 85 -114 111 -166 27 -55 115 -151 165 -179 66 -37
118 -24 143 34 25 61 19 89 -38 156 -29 34 -72 87 -95 118 -74 98 -207 201
-259 201 -34 0 -84 18 -84 30 0 3 -16 25 -35 48 -26 29 -47 43 -73 48 -20 4
-63 17 -95 30 -45 19 -83 26 -180 31 -114 5 -124 4 -147 -15z"/>
<path d="M3140 2061 c-21 -40 -4 -135 31 -180 l20 -24 -30 -28 c-17 -15 -33
-40 -36 -56 -3 -15 -13 -53 -21 -83 -8 -30 -21 -78 -28 -106 -7 -28 -20 -62
-29 -75 -23 -31 -21 -82 3 -127 71 -134 92 -211 88 -322 -4 -106 1 -110 116
-110 206 0 343 45 433 143 55 59 66 100 61 211 -7 122 -42 197 -183 397 -40
57 -143 167 -253 272 -118 111 -150 127 -172 88z m198 -341 c182 -195 268
-336 260 -427 -3 -42 -23 -55 -33 -21 -13 42 -125 263 -145 285 -6 7 -20 28
-31 48 -12 19 -25 35 -30 35 -5 0 -20 17 -34 38 -14 20 -36 54 -50 75 l-26 38
28 -18 c15 -10 43 -33 61 -53z"/>
<path d="M1945 1999 c-16 -49 71 -80 123 -43 30 21 16 38 -43 53 -61 15 -73
14 -80 -10z"/>
</g>
</svg>
